<?xml version="1.0" standalone="no"?>
<!DOCTYPE svg PUBLIC "-//W3C//DTD SVG 20010904//EN"
 "http://www.w3.org/TR/2001/REC-SVG-20010904/DTD/svg10.dtd">
<svg version="1.0" xmlns="http://www.w3.org/2000/svg"
 width="385.000000pt" height="385.000000pt" viewBox="0 0 385.000000 385.000000"
 preserveAspectRatio="xMidYMid meet">
<metadata>
Created by potrace 1.14, written by Peter Selinger 2001-2017
</metadata>
<g transform="translate(0.000000,385.000000) scale(0.100000,-0.100000)"
fill="#000000" stroke="none">
<path d="M1770 3799 c-245 -28 -422 -79 -627 -179 -374 -183 -666 -475 -853
-854 -84 -171 -152 -375 -174 -522 -19 -128 -24 -195 -24 -334 1 -185 11 -280
50 -445 39 -170 118 -367 208 -525 137 -238 363 -472 610 -633 219 -142 508
-246 756 -274 122 -14 421 -8 514 10 47 9 100 19 119 22 18 3 88 24 155 46
629 209 1105 747 1241 1404 37 179 52 408 35 555 -16 143 -20 175 -25 190 -2
8 -7 31 -10 50 -9 52 -43 174 -77 270 -59 165 -184 388 -303 537 -77 97 -265
274 -365 345 -219 155 -499 275 -730 313 -19 3 -46 7 -60 10 -108 19 -330 26
-440 14z m240 -109 c0 -5 -6 -10 -12 -11 -7 -1 -22 -2 -33 -3 -31 -2 -27 -41
5 -41 14 0 26 -6 28 -16 2 -12 -4 -15 -28 -11 -29 4 -30 3 -30 -31 0 -28 -4
-35 -17 -33 -15 2 -18 13 -16 72 1 38 2 72 2 77 1 11 101 8 101 -3z m153 -22
c39 -46 10 -125 -49 -134 -45 -7 -76 21 -79 74 -4 78 78 117 128 60z m-473 7
c0 -8 -6 -15 -14 -15 -24 0 -26 -14 -15 -75 8 -46 8 -60 -3 -66 -16 -10 -23 7
-32 77 -7 47 -9 51 -32 46 -13 -2 -24 0 -24 6 0 15 9 19 60 27 25 4 47 9 49
11 8 7 11 4 11 -11z m565 -44 c-4 -20 -9 -46 -11 -57 -5 -27 19 -48 44 -40 13
5 23 23 31 61 9 38 17 55 28 55 16 0 16 -3 -8 -93 -13 -48 -45 -65 -88 -47
-43 18 -47 37 -26 125 10 40 15 46 27 39 6 -4 7 -21 3 -43z m194 -20 c6 -10
13 -37 17 -60 8 -47 16 -44 34 12 6 21 17 36 23 34 16 -6 12 -33 -13 -100 -25
-66 -44 -67 -60 -3 -21 80 -25 84 -39 33 -10 -34 -19 -47 -32 -47 -17 0 -16 5
8 75 27 75 44 91 62 56z m-1022 -53 c23 -69 19 -91 -22 -110 -38 -17 -73 -2
-91 40 -24 58 -29 92 -12 92 8 0 22 -23 33 -55 15 -46 22 -55 42 -55 33 0 39
26 19 82 -16 45 -15 68 3 68 4 0 17 -28 28 -62z m1251 -35 c32 -43 -7 -133
-57 -133 -23 0 -91 30 -91 41 0 4 14 36 31 73 l31 66 36 -16 c21 -8 43 -22 50
-31z m-1158 -29 c0 -8 -6 -14 -14 -14 -18 0 -29 27 -13 33 16 6 27 -1 27 -19z
m-362 -71 c30 -47 38 -69 30 -74 -8 -5 -21 6 -36 29 -38 57 -40 57 -26 1 18
-67 7 -81 -38 -47 -56 42 -61 42 -33 0 15 -23 24 -46 20 -52 -10 -16 -20 -5
-61 61 -31 52 -35 63 -22 75 15 15 17 14 86 -43 14 -12 27 -21 29 -20 1 2 -4
27 -12 57 -10 39 -11 57 -3 67 6 7 13 13 17 13 3 0 25 -30 49 -67z m1652 32
c17 -20 -10 -160 -31 -160 -8 0 -14 10 -14 25 0 31 -39 54 -66 37 -10 -6 -22
-8 -26 -3 -4 4 15 28 42 52 28 24 55 48 60 54 14 13 21 12 35 -5z m-665 -50
c230 -37 427 -115 610 -240 81 -55 97 -68 188 -155 217 -206 370 -482 433
-785 24 -113 28 -153 28 -310 0 -150 -4 -199 -23 -295 -132 -649 -634 -1123
-1275 -1205 -65 -8 -268 -8 -331 0 -427 55 -784 270 -1033 621 -103 145 -209
384 -239 539 -4 22 -8 42 -8 45 -1 3 -5 28 -10 55 -4 28 -9 59 -12 70 -2 11
-4 83 -4 160 0 136 9 234 32 333 6 26 12 55 14 65 11 51 72 212 110 290 218
441 657 759 1120 812 33 4 62 9 64 11 9 8 265 0 336 -11z m-892 -2 c9 -9 -13
-34 -24 -27 -14 8 -11 34 4 34 8 0 17 -3 20 -7z m1695 -36 c27 -20 39 -34 33
-40 -7 -7 -16 -5 -27 4 -15 12 -19 11 -38 -15 -46 -63 -64 -81 -75 -71 -7 7 3
27 29 62 34 44 37 53 25 63 -18 15 -20 44 -2 34 6 -4 31 -21 55 -37z m82 -70
c0 -9 -54 -83 -86 -116 -2 -2 -10 -1 -19 3 -13 5 -6 18 36 66 52 60 69 72 69
47z m-2106 -127 c-8 -8 -20 -3 -42 19 -17 17 -33 31 -36 31 -4 0 5 -22 19 -49
21 -42 22 -50 9 -55 -9 -3 -36 6 -62 21 l-47 28 34 -42 c54 -67 26 -72 -35 -6
-47 51 -51 60 -38 73 13 13 20 11 66 -13 28 -15 52 -26 53 -25 2 2 -9 27 -22
56 -21 43 -23 55 -12 68 11 13 19 8 68 -40 40 -40 52 -59 45 -66z m56 50 c0
-23 -25 -27 -33 -6 -5 13 5 23 26 25 4 1 7 -8 7 -19z m2144 -5 c62 -57 -4
-161 -85 -133 -66 23 -62 107 6 146 30 17 50 14 79 -13z m102 -110 c3 -8 -1
-36 -10 -62 -9 -25 -14 -48 -11 -51 2 -2 18 8 36 22 21 18 35 24 42 17 11 -11
6 -17 -64 -73 -37 -30 -49 -35 -58 -25 -8 10 -5 28 10 66 23 61 19 73 -14 45
-48 -42 -54 -46 -60 -30 -4 10 13 30 51 60 63 50 70 53 78 31z m-2575 -116
c32 -23 59 -48 59 -55 0 -21 -12 -17 -60 19 l-45 32 34 -47 c19 -27 31 -53 28
-62 -6 -14 -11 -14 -48 -1 -62 22 -67 18 -20 -16 27 -20 39 -35 33 -41 -7 -7
-33 6 -75 35 -58 39 -64 47 -53 62 11 16 16 16 66 1 29 -9 55 -14 58 -12 2 3
-12 24 -31 48 -28 34 -33 47 -26 61 6 9 12 17 15 17 3 0 32 -19 65 -41z m94 3
c0 -18 -20 -15 -23 4 -3 10 1 15 10 12 7 -3 13 -10 13 -16z m2594 -39 c24 -20
32 -64 14 -70 -8 -3 -13 3 -13 14 0 19 -18 43 -32 43 -11 0 -10 -38 2 -61 9
-15 6 -24 -15 -44 -20 -21 -28 -24 -45 -15 -26 14 -50 51 -46 73 1 10 5 17 9
17 4 0 11 0 17 0 5 0 7 -7 3 -15 -6 -18 25 -57 39 -49 5 4 6 18 2 33 -9 35 -7
60 7 77 15 19 32 18 58 -3z m201 -425 c35 -39 38 -52 10 -45 -27 7 -33 -6 -35
-70 -2 -59 5 -67 50 -69 67 -3 63 5 59 -100 -3 -99 -5 -106 -30 -110 -12 -2
-14 11 -11 77 2 43 1 82 -2 86 -3 5 -26 9 -51 10 -25 0 -48 2 -52 2 -4 1 -5
39 -3 86 5 89 5 89 -42 88 -7 -1 -13 1 -13 4 0 8 73 73 82 73 4 0 22 -15 38
-32z m-3150 -115 l34 -38 -29 -5 -30 -5 1 -86 0 -85 -56 0 -55 1 -2 -70 c-1
-38 -2 -78 -2 -87 -1 -17 -29 -26 -32 -10 -1 4 -3 51 -5 105 -1 68 1 97 9 98
7 1 32 2 57 3 l45 1 1 67 2 67 -30 3 -29 3 37 38 c20 20 39 37 43 37 3 0 22
-17 41 -37z m3262 -442 c0 -9 0 -27 -1 -40 -1 -13 1 -27 6 -30 38 -29 54 -62
58 -120 2 -33 0 -61 -5 -61 -5 0 -10 -10 -12 -22 -2 -13 -17 -32 -35 -43 -18
-11 -32 -28 -33 -37 -1 -53 -25 -60 -95 -26 -51 25 -56 44 -25 86 17 23 19 31
8 58 -9 25 -8 44 4 95 10 41 13 68 7 75 -16 19 -18 52 -6 62 15 13 98 30 115
24 6 -2 13 -12 14 -21z m-3331 -158 c1 -10 0 -26 -1 -36 -1 -10 10 -31 24 -48
27 -32 37 -87 14 -73 -7 4 -5 -2 5 -13 19 -22 23 -43 7 -43 -5 0 -10 -9 -10
-20 0 -12 -12 -26 -30 -35 -16 -9 -30 -23 -30 -33 -1 -42 -16 -47 -69 -22 -53
24 -58 40 -29 78 6 6 8 30 4 52 -4 24 -1 55 8 80 12 36 12 45 -1 71 -18 35
-16 39 29 46 18 3 35 7 37 9 12 11 41 2 42 -13z m3252 -385 c3 -7 -21 -39 -51
-70 l-56 -58 37 -38 c20 -21 37 -41 37 -44 0 -7 -6 -15 -69 -81 -42 -44 -44
-47 -28 -65 9 -10 17 -21 17 -23 0 -3 -24 -5 -52 -4 l-53 0 -2 53 c-2 56 1 60
28 36 16 -14 20 -14 31 -2 7 8 28 30 46 50 l34 36 -41 38 -40 39 66 73 c67 71
87 84 96 60z m-3113 -169 l61 -81 -33 -25 c-18 -13 -40 -28 -47 -33 -12 -6 -7
-19 28 -64 l43 -55 26 17 25 17 -6 -34 c-4 -18 -7 -45 -7 -58 0 -24 -2 -24
-42 -18 -63 11 -76 20 -51 36 20 12 20 14 5 38 -9 14 -31 44 -49 67 -32 39
-41 64 -25 64 4 0 23 13 42 29 l34 29 -40 53 c-53 71 -56 77 -49 89 12 20 26
8 85 -71z m404 -566 c53 -50 96 -94 96 -97 0 -3 -7 -6 -16 -6 -9 0 -33 -19
-54 -42 -28 -32 -41 -40 -50 -32 -8 8 -7 14 5 24 8 7 15 19 15 26 0 13 -5 16
-40 18 -9 1 -16 13 -18 30 -3 22 0 27 11 23 9 -3 21 1 28 9 10 12 9 18 -4 31
-15 15 -18 15 -36 -1 -22 -20 -63 -14 -55 9 3 8 11 12 18 9 23 -9 36 19 20 41
-15 20 -16 20 -39 -8 -20 -22 -23 -32 -15 -53 14 -36 12 -50 -6 -69 -21 -21
-44 -4 -25 19 9 11 10 24 3 50 -9 31 -7 39 21 76 17 22 34 39 38 38 4 -2 50
-44 103 -95z m2294 47 c25 -28 41 -54 37 -60 -5 -8 -14 -5 -30 10 -19 18 -24
19 -34 6 -6 -7 -10 -20 -9 -27 4 -17 -31 -24 -45 -10 -8 8 -3 19 16 39 31 33
34 42 10 41 -10 0 -32 -17 -50 -38 l-32 -37 36 -37 c24 -26 33 -43 28 -55 -5
-14 -12 -10 -43 24 -20 22 -46 43 -56 47 -17 7 -11 16 49 77 38 39 72 70 75
69 3 -1 25 -23 48 -49z m-171 -118 c6 -4 14 -19 18 -34 4 -14 16 -28 27 -31
23 -7 16 -26 -10 -25 -9 0 -29 -3 -44 -7 -22 -5 -28 -4 -28 8 0 8 7 17 15 21
19 7 19 30 0 46 -12 10 -19 10 -27 2 -9 -9 -7 -12 10 -12 25 0 29 -15 7 -24
-36 -14 -61 24 -33 52 13 13 47 16 65 4z m-142 -32 c3 -5 17 -10 29 -10 20 0
23 -4 21 -32 -1 -17 -10 -37 -19 -43 -27 -20 -18 -25 15 -8 28 14 32 14 46 0
15 -14 15 -18 -1 -41 -15 -24 -71 -48 -88 -39 -5 2 -8 11 -8 19 0 8 5 12 11 9
16 -11 59 4 59 20 0 20 -10 19 -25 -1 -9 -14 -16 -14 -33 -5 -26 14 -28 33 -7
51 30 25 6 21 -33 -5 -44 -29 -46 -53 -11 -88 36 -35 16 -67 -42 -67 -37 0
-66 21 -55 39 4 6 18 3 36 -7 24 -14 32 -14 42 -4 10 10 10 15 -2 22 -8 6 -21
8 -29 5 -10 -4 -12 1 -7 19 3 14 2 27 -2 30 -7 4 -59 -25 -90 -50 -2 -1 6 -24
17 -49 25 -56 26 -65 7 -65 -7 0 -23 23 -35 50 -12 28 -24 50 -27 50 -2 0 -20
-7 -39 -14 -42 -18 -51 -51 -9 -36 14 6 30 7 36 4 16 -10 26 -48 16 -61 -13
-17 -28 -7 -28 18 0 10 -4 19 -9 19 -17 0 -21 -18 -11 -44 11 -31 -7 -48 -25
-23 -8 12 -15 13 -23 5 -19 -19 -59 -1 -71 33 -6 17 -15 28 -21 24 -5 -3 -10
1 -10 9 0 8 10 18 23 22 12 4 45 17 72 29 28 12 70 31 95 42 59 26 230 132
230 143 0 13 -25 19 -40 10 -20 -12 -33 -1 -19 16 13 16 55 19 64 4z m-1710
-105 c28 -17 80 -46 118 -64 66 -31 85 -51 49 -51 -12 0 -26 -16 -41 -49 -15
-33 -27 -48 -36 -45 -10 4 -11 12 -5 29 11 29 -6 48 -31 34 -14 -7 -21 -5 -29
11 -11 21 -5 44 10 35 7 -5 20 17 20 35 0 20 -32 17 -54 -5 -26 -26 -59 -25
-49 1 3 8 9 12 14 9 4 -3 13 3 19 14 8 16 7 22 -9 31 -27 14 -27 14 -41 -20
-10 -25 -10 -34 2 -52 25 -39 28 -57 12 -73 -19 -19 -37 -10 -29 15 3 10 -2
34 -11 53 -15 31 -15 39 -3 69 8 18 15 38 15 43 1 6 2 14 3 18 0 5 7 5 14 1 6
-4 35 -22 62 -39z m1595 29 c0 -9 -5 -14 -12 -12 -18 6 -21 28 -4 28 9 0 16
-7 16 -16z m-1800 -27 c0 -8 -3 -17 -7 -20 -9 -9 -34 13 -27 24 8 14 34 11 34
-4z m1330 -162 c13 -14 29 -25 37 -25 17 0 17 -16 -1 -23 -11 -4 -12 -14 -3
-50 10 -47 3 -87 -13 -71 -5 5 -11 29 -15 54 -8 55 -11 59 -33 55 -10 -1 -17
-11 -16 -24 0 -13 -5 -21 -16 -21 -10 0 -24 -7 -31 -16 -11 -14 -10 -18 5 -30
14 -9 24 -10 38 -3 22 12 45 2 30 -13 -5 -5 -26 -12 -45 -15 -30 -4 -38 0 -52
21 -16 24 -16 28 -1 51 9 14 21 25 27 25 6 0 8 4 5 8 -3 5 -19 7 -36 4 -39 -6
-41 16 -2 24 24 5 28 10 24 31 -9 47 59 60 98 18z m-755 0 c27 -9 59 -17 70
-19 112 -21 145 -30 142 -40 -3 -6 -9 -10 -15 -9 -5 1 -15 -25 -21 -58 -8 -38
-17 -59 -24 -56 -7 2 -11 17 -9 32 3 27 2 28 -36 21 -32 -5 -41 -2 -46 10 -4
10 0 24 9 34 22 24 18 40 -9 40 -17 0 -26 -7 -30 -25 -4 -16 -13 -25 -26 -25
-21 0 -27 15 -10 25 16 10 12 42 -7 49 -38 15 -44 -48 -8 -90 27 -31 30 -69 5
-69 -10 0 -14 8 -12 23 2 12 -1 22 -6 22 -6 0 -19 14 -30 32 -16 24 -18 37
-11 56 5 14 7 33 4 43 -8 23 4 24 70 4z m-189 -56 c3 -6 2 -15 -2 -19 -12 -12
-38 5 -30 19 9 14 23 14 32 0z m671 -13 c4 -4 1 -11 -8 -16 -25 -14 -18 -104
9 -133 26 -27 28 -37 7 -37 -8 0 -15 4 -15 10 0 16 -35 29 -51 19 -11 -7 -10
-10 9 -15 31 -9 27 -26 -5 -22 -37 4 -42 38 -12 67 l23 21 -35 0 c-19 0 -40 5
-47 12 -15 15 -16 48 -2 48 6 0 10 7 10 15 0 8 -7 15 -15 15 -15 0 -20 12 -10
22 8 8 134 3 142 -6z m393 -60 c0 -8 -4 -17 -8 -20 -13 -8 -35 11 -28 23 10
16 36 14 36 -3z m-630 -40 c0 -18 -16 -29 -30 -21 -13 8 -1 35 16 35 8 0 14
-6 14 -14z m293 -3 c8 -7 -11 -33 -24 -33 -5 0 -9 9 -9 20 0 19 20 27 33 13z"/>
<path d="M2081 3656 c-32 -38 -17 -96 24 -96 27 0 45 25 45 62 0 43 -44 64
-69 34z"/>
<path d="M2588 3484 c-19 -39 -20 -46 -8 -54 25 -16 48 -11 64 12 22 31 20 65
-3 78 -28 15 -29 14 -53 -36z"/>
<path d="M2761 3408 c-21 -16 -22 -21 -10 -29 22 -14 26 -11 33 17 9 35 6 36
-23 12z"/>
<path d="M1750 3258 c-179 -34 -288 -70 -419 -139 -380 -202 -650 -591 -708
-1019 -10 -69 -10 -310 -1 -370 39 -260 136 -489 286 -674 269 -334 643 -511
1057 -501 66 1 149 8 185 14 175 29 364 105 519 208 105 70 278 241 347 343
219 321 299 714 218 1075 -122 550 -526 949 -1066 1054 -101 20 -337 25 -418
9z m445 -58 c405 -89 726 -343 905 -717 62 -128 68 -118 -100 -167 -168 -49
-200 -58 -182 -50 22 10 13 24 -17 24 -29 0 -61 22 -61 41 0 5 -7 9 -15 9 -21
0 -19 57 3 104 14 29 20 34 25 22 4 -9 11 -16 16 -16 6 0 8 7 4 15 -3 9 10 39
30 69 64 97 81 161 56 209 -22 42 -48 48 -79 17 -18 -18 -20 -18 -21 -2 -1 9
-1 22 0 29 3 22 -18 24 -76 8 -32 -9 -69 -18 -83 -21 -71 -13 -115 -32 -112
-48 3 -19 -28 -22 -46 -4 -15 15 -16 0 -2 -37 9 -22 8 -24 -8 -17 -56 29 -95
-56 -51 -112 20 -25 20 -28 5 -67 -9 -21 -16 -57 -16 -79 0 -35 -3 -40 -22
-41 -23 -1 -23 -1 1 -8 17 -5 27 -18 36 -48 25 -83 93 -142 148 -128 66 16
-33 -18 -158 -55 -143 -41 -164 -45 -200 -36 -11 2 -23 5 -27 5 -4 1 -5 7 -3
14 3 6 -1 52 -9 101 -13 89 -14 90 -66 140 -42 40 -54 58 -57 88 -4 28 -1 38
9 38 23 0 88 84 77 101 -5 8 -9 10 -9 4 0 -5 -5 -3 -11 5 -9 13 -10 13 -6 -1
6 -18 -10 -39 -30 -39 -7 0 -13 11 -13 24 0 16 -12 34 -32 50 -18 14 -27 26
-20 26 7 0 20 16 29 36 17 35 17 37 -2 53 -11 9 -28 29 -38 44 -22 34 -49 32
-57 -3 -5 -21 -13 -26 -45 -28 -32 -2 -43 -9 -57 -32 -9 -17 -24 -30 -33 -30
-9 0 -13 -5 -9 -11 6 -10 37 -8 96 6 36 9 51 -21 22 -42 -10 -8 -18 -16 -16
-18 7 -14 0 -33 -22 -56 -23 -25 -31 -51 -41 -140 -4 -36 -2 -48 10 -53 8 -3
16 0 16 7 1 7 2 17 3 22 1 6 6 32 10 58 8 48 30 82 46 72 10 -6 3 -53 -15
-106 -12 -34 -12 -39 0 -39 24 0 27 -40 9 -120 -13 -61 -23 -175 -24 -271 0
-14 -32 -30 -60 -31 -3 0 -12 -4 -21 -9 -9 -4 -20 -5 -24 -1 -6 7 -10 8 -36
11 -6 0 -8 9 -5 19 3 9 6 59 8 111 2 93 1 94 -28 117 -16 13 -44 31 -61 39
-32 15 -33 18 -33 73 0 57 11 82 36 82 7 0 24 4 38 9 18 7 23 15 19 29 -4 17
-9 19 -36 11 -36 -10 -40 -7 -57 44 -8 25 -18 37 -30 37 -10 0 -20 7 -23 14
-5 13 -10 13 -37 0 -49 -25 -106 -110 -120 -180 -6 -32 -14 -67 -16 -76 -4
-14 1 -18 19 -18 20 0 26 6 31 32 13 67 27 108 36 108 18 0 11 -56 -15 -124
-23 -60 -23 -66 -7 -66 39 0 46 -15 32 -66 -20 -79 -47 -264 -39 -264 18 0 3
-43 -17 -50 -25 -10 -84 -10 -85 -1 0 3 -2 13 -3 21 -2 8 -6 40 -10 70 -13
111 -15 116 -77 170 -50 44 -59 57 -59 86 0 26 4 34 18 34 27 0 66 45 58 66
-5 13 -9 15 -18 6 -19 -19 -28 -14 -28 13 0 14 -9 34 -20 45 -16 16 -17 20 -5
20 12 0 14 11 11 56 -2 33 -9 60 -17 65 -46 29 -97 -13 -103 -84 -3 -34 -12
-57 -39 -89 -39 -49 -44 -62 -52 -135 -4 -50 6 -76 21 -52 4 8 3 9 -4 5 -7 -4
-12 -2 -12 3 0 6 7 11 15 11 10 0 16 16 21 50 4 29 14 56 25 66 11 9 19 15 20
13 9 -44 8 -71 -2 -102 -10 -30 -10 -43 -1 -58 13 -20 10 -68 -8 -142 -15 -61
-28 -197 -19 -203 11 -7 4 -37 -12 -46 -19 -11 -343 -107 -348 -103 -1 2 -5
21 -7 42 -2 21 -7 58 -12 83 -10 53 -8 275 2 340 47 281 150 500 336 710 59
67 172 162 259 218 269 172 630 239 936 172z m646 -461 c19 -36 5 -100 -37
-167 -21 -34 -42 -62 -47 -62 -4 0 -3 9 3 19 5 11 11 52 11 90 1 41 5 68 10
65 6 -3 7 5 3 20 -12 48 35 76 57 35z m-296 -29 c-3 -5 -2 -10 4 -10 5 0 8 -8
6 -17 -1 -10 4 -30 11 -44 13 -26 9 -43 -7 -33 -4 2 -6 11 -2 19 3 10 1 13 -9
10 -17 -7 -20 -35 -4 -35 6 0 5 -5 -3 -12 -10 -11 -15 -9 -27 6 -8 11 -14 26
-14 34 0 8 -6 12 -15 8 -18 -6 -21 19 -3 30 6 4 8 3 5 -2 -3 -6 5 -10 18 -10
13 0 21 4 19 8 -3 5 -10 6 -15 3 -5 -4 -9 -2 -9 4 0 18 19 22 28 5 6 -11 11
-13 16 -5 4 6 2 11 -4 11 -6 0 -9 4 -5 9 3 6 -4 8 -15 6 -11 -2 -20 1 -20 7 0
5 7 8 15 5 8 -4 17 -2 20 3 4 6 8 10 11 10 3 0 2 -4 -1 -10z m-50 -20 c3 -5 2
-10 -4 -10 -5 0 -13 5 -16 10 -3 6 -2 10 4 10 5 0 13 -4 16 -10z m-45 -73 c0
-5 7 -15 16 -22 15 -10 12 -14 -19 -33 l-36 -21 -15 24 c-34 51 -4 114 36 78
10 -9 18 -21 18 -26z m-485 17 c27 -11 47 -73 40 -127 -7 -46 -8 -48 -37 -43
-16 2 -31 6 -33 8 -2 2 0 21 4 43 3 22 6 59 6 83 -1 23 0 42 1 42 1 0 10 -3
19 -6z m560 -93 c2 -4 -9 -5 -25 -3 -17 2 -28 8 -25 12 6 9 43 2 50 -9z m-65
6 c0 -2 -11 -14 -25 -27 -14 -13 -25 -21 -25 -17 0 3 10 15 22 27 21 19 28 24
28 17z m-893 -39 c-3 -8 -6 -5 -6 6 -1 11 2 17 5 13 3 -3 4 -12 1 -19z m-397
-45 c0 -3 -7 -3 -15 1 -8 3 -15 2 -15 -3 0 -12 26 -32 33 -25 3 3 4 -2 3 -13
-2 -10 -11 -17 -20 -17 -9 1 -16 -3 -16 -10 0 -6 -6 0 -13 14 -11 21 -11 29 1
47 11 18 42 23 42 6z m423 -78 c-3 -27 -9 -54 -15 -60 -7 -7 -8 -3 -4 12 4 12
7 50 8 85 1 42 3 55 8 38 4 -14 5 -47 3 -75z m1087 -50 c0 -7 -6 -15 -12 -18
-10 -3 -10 -7 0 -19 11 -14 9 -19 -9 -32 -29 -20 -34 -14 -20 25 6 18 11 50
11 73 l0 41 15 -29 c8 -15 15 -34 15 -41z m-73 -7 c-2 -13 -4 -3 -4 22 0 25 2
35 4 23 2 -13 2 -33 0 -45z m581 -93 c31 -133 36 -177 36 -320 0 -206 -38
-378 -125 -564 -108 -231 -313 -453 -533 -576 -69 -38 -237 -113 -271 -120
-11 -2 -45 -9 -75 -14 -30 -6 -66 -14 -80 -17 -58 -13 -327 -11 -410 3 -179
31 -376 114 -530 221 -146 102 -325 311 -408 478 -28 55 -102 255 -102 274 0
5 15 13 33 18 46 15 286 86 392 117 167 49 418 123 745 220 179 53 354 105
390 115 36 10 88 25 115 33 294 88 362 108 375 111 8 2 62 18 120 36 58 17
128 38 155 46 28 7 70 20 95 28 25 7 48 11 51 7 4 -3 16 -46 27 -96z m-775 65
c3 -11 2 -18 -3 -15 -4 3 -10 14 -13 25 -3 11 -2 18 3 15 4 -3 10 -14 13 -25z
m-376 -12 c28 -17 34 -28 52 -109 28 -123 28 -125 -16 -135 -21 -4 -42 -8 -48
-8 -5 -1 -13 -5 -17 -11 -7 -9 -94 -12 -103 -3 -2 2 2 30 9 61 8 32 13 59 13
60 0 1 10 41 23 89 25 94 23 93 87 56z m549 -23 c-9 -14 -14 -31 -10 -38 4 -7
4 -9 -1 -5 -4 4 -17 2 -29 -4 -16 -8 -13 -2 12 26 17 20 32 42 32 48 0 6 3 8
6 5 4 -4 -1 -18 -10 -32z m171 -21 c-3 -3 -12 -4 -19 -1 -8 3 -5 6 6 6 11 1
17 -2 13 -5z m-292 -14 c3 -5 17 -10 31 -10 14 0 23 -4 19 -9 -3 -6 -17 -6
-35 1 -30 10 -50 28 -31 28 5 0 13 -4 16 -10z m254 6 c-2 -3 -38 -14 -79 -25
-40 -12 -69 -16 -63 -10 6 6 35 17 64 24 58 14 85 18 78 11z m-1092 -67 c38
-11 39 -15 43 -104 6 -154 13 -136 -55 -157 -57 -17 -126 -24 -137 -13 -6 6
25 126 53 208 12 34 23 68 25 76 3 8 11 10 22 6 9 -4 31 -11 49 -16z m-418
-131 c34 -19 40 -30 52 -78 7 -30 14 -59 15 -65 2 -5 6 -26 10 -46 l6 -35 -74
-22 c-84 -25 -141 -35 -133 -22 3 4 1 10 -3 12 -5 1 4 46 19 98 15 52 32 114
38 138 7 23 16 42 22 42 5 0 27 -10 48 -22z"/>
<path d="M2220 3122 c-68 -4 -76 -9 -55 -32 10 -11 16 -22 14 -24 -14 -12
-187 -126 -191 -126 -3 0 -22 25 -42 55 -20 30 -40 55 -44 55 -4 0 -68 -40
-141 -90 -74 -49 -137 -90 -140 -90 -3 0 -18 19 -34 43 -59 91 -37 93 -212
-23 -85 -57 -155 -108 -155 -114 0 -6 6 -19 14 -28 11 -16 25 -9 144 72 73 50
134 90 136 90 2 0 23 -29 46 -65 l43 -64 138 94 c76 52 142 95 147 95 4 0 23
-25 41 -55 18 -30 39 -55 45 -54 6 0 63 35 126 79 l115 78 15 -24 c16 -23 16
-23 53 52 20 41 37 76 37 78 0 4 -17 3 -100 -2z"/>
<path d="M1556 2673 c-26 -14 -28 -19 -23 -55 3 -23 13 -48 21 -57 15 -14 18
-14 35 4 11 11 21 29 23 40 2 11 7 23 12 26 12 10 1 36 -21 47 -13 7 -27 6
-47 -5z"/>
<path d="M1712 2468 c-16 -16 -15 -28 2 -28 19 0 27 13 17 28 -5 9 -10 9 -19
0z"/>
<path d="M2224 2371 c-16 -11 -12 -41 5 -41 24 0 44 16 39 30 -5 15 -31 21
-44 11z"/>
<path d="M1380 2255 c0 -8 7 -15 15 -15 8 0 15 7 15 15 0 8 -7 15 -15 15 -8 0
-15 -7 -15 -15z"/>
<path d="M2535 2651 c-3 -6 -11 -9 -16 -6 -5 4 -9 1 -9 -4 0 -13 10 -14 30 -1
8 5 12 12 8 15 -3 4 -9 1 -13 -4z"/>
<path d="M1126 2441 c-4 -5 3 -15 15 -21 28 -15 34 -7 10 14 -12 11 -21 13
-25 7z"/>
<path d="M1931 1764 c0 -11 3 -14 6 -6 3 7 2 16 -1 19 -3 4 -6 -2 -5 -13z"/>
<path d="M2114 1748 l-19 -23 23 19 c21 18 27 26 19 26 -2 0 -12 -10 -23 -22z"/>
<path d="M1891 1734 c0 -11 3 -14 6 -6 3 7 2 16 -1 19 -3 4 -6 -2 -5 -13z"/>
<path d="M1826 1707 c34 -48 22 -63 -17 -19 -16 17 -32 32 -36 32 -4 0 6 -13
21 -29 37 -39 30 -60 -9 -30 l-30 23 23 -25 c28 -32 28 -43 1 -36 -15 4 -19 3
-12 -4 7 -7 7 -20 0 -39 -9 -24 -16 -28 -37 -24 -24 4 -24 4 -2 -5 32 -15 28
-38 -8 -43 -16 -3 -30 -2 -30 2 0 3 -17 7 -37 9 -157 12 -243 15 -243 9 0 -9
36 -12 94 -9 38 2 145 -12 196 -25 14 -4 40 -7 58 -7 18 0 27 -4 21 -8 -23
-14 16 -16 41 -1 23 13 24 13 6 -2 -15 -12 -16 -16 -5 -17 22 -2 -33 -17 -61
-17 l-25 0 24 7 c21 6 19 7 -18 17 -22 6 -41 7 -41 3 0 -5 9 -9 21 -9 11 0 18
-4 15 -9 -3 -5 -16 -7 -29 -4 -12 4 -18 2 -14 -3 5 -5 41 -9 80 -10 40 0 83
-4 97 -8 19 -5 21 -5 10 3 -12 9 -11 11 8 11 13 0 33 5 45 11 21 10 21 10 3
-5 -11 -9 -24 -16 -30 -16 -5 0 -1 -8 10 -19 14 -14 22 -16 32 -8 8 6 32 12
54 13 22 1 43 6 47 11 3 5 14 9 24 10 90 4 93 5 67 12 -20 5 -10 10 48 21 39
7 72 16 72 20 0 9 -164 -29 -168 -39 -1 -5 -14 -6 -27 -3 -14 2 -25 0 -25 -4
0 -5 -10 -9 -22 -10 -13 -1 -39 -4 -58 -8 -35 -6 -35 -6 -8 7 23 11 26 15 15
27 -7 8 -11 14 -9 13 2 0 17 3 33 7 16 5 27 5 24 0 -11 -18 19 -22 71 -10 30
7 54 16 54 19 0 3 12 6 28 7 15 0 56 4 92 7 43 5 58 4 45 -2 -26 -12 -10 -13
40 -2 22 5 58 12 79 15 97 15 24 16 -231 2 -65 -4 -83 -2 -83 9 0 7 6 16 13
18 7 3 5 6 -5 6 -10 1 -18 5 -18 11 0 5 8 14 18 20 15 10 14 10 -4 5 -14 -4
-24 0 -27 9 -4 10 9 23 39 41 60 35 56 42 -5 8 -58 -33 -76 -26 -35 12 l29 27
-29 -21 c-38 -27 -54 -16 -24 18 l23 26 -27 -24 c-30 -27 -49 -22 -27 6 13 17
12 17 -6 2 -11 -8 -28 -14 -39 -11 -14 3 -17 10 -13 35 l6 32 -16 -35 c-16
-35 -16 -35 -24 -10 -4 16 -7 19 -8 8 -1 -21 -12 -23 -30 -5 -10 10 -11 8 -5
-7 6 -16 4 -18 -9 -13 -10 4 -17 1 -17 -6 0 -7 -16 6 -36 28 l-36 40 28 -38z
m231 -223 c-3 -3 -12 -4 -19 -1 -8 3 -5 6 6 6 11 1 17 -2 13 -5z m-142 -14
c13 -5 14 -9 5 -9 -8 0 -24 4 -35 9 -13 5 -14 9 -5 9 8 0 24 -4 35 -9z m-61
-11 c-4 -8 1 -9 17 -4 19 5 21 4 9 -4 -22 -15 -40 -13 -40 4 0 8 5 15 11 15 5
0 7 -5 3 -11z"/>
<path d="M1850 1735 c0 -5 5 -17 10 -25 5 -8 10 -10 10 -5 0 6 -5 17 -10 25
-5 8 -10 11 -10 5z"/>
<path d="M2046 1723 c-6 -14 -5 -15 5 -6 7 7 10 15 7 18 -3 3 -9 -2 -12 -12z"/>
<path d="M1996 1703 c-6 -14 -5 -15 5 -6 7 7 10 15 7 18 -3 3 -9 -2 -12 -12z"/>
<path d="M1710 1656 c0 -3 9 -10 20 -16 11 -6 20 -8 20 -6 0 3 -9 10 -20 16
-11 6 -20 8 -20 6z"/>
<path d="M1730 1590 c8 -5 20 -10 25 -10 6 0 3 5 -5 10 -8 5 -19 10 -25 10 -5
0 -3 -5 5 -10z"/>
<path d="M1630 1586 c0 -2 9 -6 20 -9 11 -3 18 -1 14 4 -5 9 -34 13 -34 5z"/>
<path d="M2200 1580 c-8 -5 -10 -10 -5 -10 6 0 17 5 25 10 8 5 11 10 5 10 -5
0 -17 -5 -25 -10z"/>
<path d="M2795 1580 c-10 -17 5 -68 22 -74 36 -14 45 27 13 62 -24 25 -26 26
-35 12z"/>
<path d="M1088 1548 c-20 -25 -23 -54 -7 -63 17 -11 44 21 47 55 3 36 -15 40
-40 8z"/>
<path d="M2150 1560 c-8 -5 -10 -10 -5 -10 6 0 17 5 25 10 8 5 11 10 5 10 -5
0 -17 -5 -25 -10z"/>
<path d="M1311 1517 c0 -12 3 -17 5 -10 12 29 198 -38 206 -74 3 -13 5 -11 9
8 5 25 2 27 -78 55 -46 16 -83 32 -83 35 0 3 -13 6 -30 7 -25 1 -30 -3 -29
-21z"/>
<path d="M2472 1519 c-9 -8 -139 -47 -176 -53 -16 -3 -31 -8 -34 -11 -3 -3 11
-3 31 0 35 6 37 5 37 -20 0 -21 -9 -29 -53 -49 -30 -13 -56 -30 -59 -37 -6
-16 -4 -127 3 -132 2 -2 15 -11 29 -20 23 -16 20 -17 -93 -17 l-118 0 4 46 c2
25 0 47 -5 50 -4 3 -8 -17 -8 -45 l0 -51 -215 0 c-118 0 -215 3 -215 7 0 3 9
14 20 23 18 16 21 28 18 86 l-3 68 -50 15 c-27 9 -53 20 -57 26 -5 6 -8 6 -8
-2 0 -6 -8 -11 -17 -11 -10 0 -26 -3 -35 -7 -13 -5 -18 -3 -18 7 0 8 -11 20
-25 26 -14 6 -25 8 -25 3 0 -5 8 -11 18 -13 17 -5 19 -16 18 -91 -1 -69 -5
-89 -20 -106 -23 -25 -11 -28 16 -4 17 15 18 15 18 -1 0 -10 5 -14 11 -10 7 4
10 1 7 -7 -3 -9 -19 -14 -41 -13 -31 0 -37 -3 -37 -20 0 -16 3 -17 9 -8 7 11
106 15 521 18 282 2 515 6 518 9 3 3 -11 5 -32 5 -23 0 -35 4 -31 10 4 6 10 8
15 5 4 -3 11 2 14 10 5 14 8 14 31 -1 14 -9 22 -20 19 -25 -3 -5 1 -9 10 -9 8
0 17 -6 19 -12 4 -8 6 -7 6 4 1 9 -15 26 -34 38 l-35 22 0 88 c0 76 2 89 18
92 16 3 16 4 -1 11 -14 5 -19 0 -24 -23 -5 -25 -7 -28 -17 -15 -6 8 -22 16
-36 17 -23 2 -25 6 -22 35 4 28 10 34 41 44 64 19 105 29 144 35 l39 6 -3 -33
c-3 -31 -9 -36 -54 -52 -30 -11 -38 -16 -20 -13 17 2 43 9 58 15 26 10 28 15
25 53 l-3 43 -43 0 c-23 0 -46 -2 -50 -6z m-856 -159 c10 0 14 -12 13 -42 -1
-40 -1 -41 -9 -15 -5 16 -19 38 -32 49 -18 16 -19 20 -5 15 10 -4 25 -7 33 -7z"/>
<path d="M2871 1512 c-15 -28 -14 -64 2 -87 31 -42 51 33 23 84 -13 24 -14 24
-25 3z"/>
<path d="M1022 1485 c-16 -35 -15 -70 2 -84 29 -25 49 57 23 93 -12 17 -14 16
-25 -9z"/>
<path d="M1511 1506 c2 -2 20 -6 39 -10 25 -4 31 -3 20 4 -14 9 -69 15 -59 6z"/>
<path d="M1600 1491 c8 -5 33 -12 55 -15 28 -4 33 -3 15 2 -46 16 -86 23 -70
13z"/>
<path d="M1312 1465 c0 -16 2 -22 5 -12 2 9 2 23 0 30 -3 6 -5 -1 -5 -18z"/>
<path d="M2783 1473 c-8 -20 18 -68 37 -68 10 0 14 9 13 28 -3 48 -37 75 -50
40z"/>
<path d="M1101 1454 c-23 -29 -25 -42 -12 -63 14 -22 52 23 49 59 -3 37 -11
38 -37 4z"/>
<path d="M1980 1460 c20 -13 43 -13 35 0 -3 6 -16 10 -28 10 -18 0 -19 -2 -7
-10z"/>
<path d="M1588 1453 c7 -3 16 -2 19 1 4 3 -2 6 -13 5 -11 0 -14 -3 -6 -6z"/>
<path d="M1620 1456 c0 -2 7 -7 16 -10 8 -3 12 -2 9 4 -6 10 -25 14 -25 6z"/>
<path d="M2218 1453 c6 -2 18 -2 25 0 6 3 1 5 -13 5 -14 0 -19 -2 -12 -5z"/>
<path d="M1345 1430 c11 -5 27 -9 35 -9 9 0 8 4 -5 9 -11 5 -27 9 -35 9 -9 0
-8 -4 5 -9z"/>
<path d="M1820 1420 c8 -5 20 -10 25 -10 6 0 3 5 -5 10 -8 5 -19 10 -25 10 -5
0 -3 -5 5 -10z"/>
<path d="M2907 1399 c-17 -15 -28 -35 -29 -54 -1 -16 -12 -43 -25 -58 -27 -34
-28 -43 -7 -51 19 -7 74 44 74 69 0 9 -5 13 -11 9 -7 -4 -2 7 10 23 14 19 21
41 19 58 l-3 29 -28 -25z"/>
<path d="M1890 1386 c36 -24 45 -24 85 9 19 15 18 15 -10 2 -32 -16 -61 -15
-78 2 -6 6 -16 11 -21 11 -6 0 5 -11 24 -24z"/>
<path d="M980 1371 c0 -16 6 -36 13 -43 6 -7 13 -26 14 -41 1 -36 29 -67 60
-67 31 0 30 25 -2 54 -15 14 -23 30 -19 39 6 18 -12 56 -35 74 -25 19 -31 16
-31 -16z"/>
<path d="M2787 1387 c-14 -36 18 -98 42 -83 18 12 13 43 -12 72 -20 23 -25 24
-30 11z"/>
<path d="M1101 1354 c-23 -30 -25 -42 -11 -64 9 -13 13 -12 30 9 21 25 25 48
11 69 -6 11 -13 7 -30 -14z"/>
<path d="M1986 1265 c-27 -30 -54 -55 -60 -55 -5 0 -32 23 -58 50 -52 55 -58
58 -58 33 0 -9 3 -13 7 -9 4 3 30 -16 58 -44 51 -50 51 -50 69 -31 10 11 23
18 29 14 5 -3 7 -1 4 4 -4 6 9 25 29 42 19 18 34 36 32 41 -2 5 -25 -15 -52
-45z"/>
<path d="M2760 1310 c-1 -8 -3 -23 -5 -32 -2 -10 5 -28 16 -40 16 -20 20 -21
29 -8 15 23 12 36 -15 67 -17 19 -25 23 -25 13z"/>
<path d="M1137 1283 c-22 -25 -31 -69 -16 -79 18 -11 50 33 44 63 -6 34 -9 36
-28 16z"/>
<path d="M1812 1235 c-1 -19 0 -35 2 -35 8 0 13 49 6 60 -4 6 -7 -5 -8 -25z"/>
<path d="M2730 1196 c0 -35 24 -71 41 -61 16 10 10 61 -9 78 -27 24 -32 21
-32 -17z"/>
<path d="M2852 1220 c-23 -10 -50 -55 -39 -66 14 -14 58 8 72 36 8 16 15 31
15 35 0 7 -21 5 -48 -5z"/>
<path d="M1163 1198 c-25 -27 -31 -78 -9 -78 23 0 37 27 34 65 l-3 37 -22 -24z"/>
<path d="M2697 1144 c-9 -9 3 -58 18 -73 30 -31 47 17 19 57 -15 22 -26 27
-37 16z"/>
<path d="M1192 1117 c-23 -25 -29 -61 -12 -72 16 -10 38 13 45 47 10 42 -6 54
-33 25z"/>
<path d="M2820 1133 c-24 -9 -50 -35 -50 -51 0 -8 -12 -23 -26 -34 -14 -11
-23 -26 -21 -33 3 -6 -10 -17 -29 -24 -35 -13 -45 -37 -19 -47 36 -14 112 29
83 47 -10 7 -9 9 4 9 22 0 60 40 54 56 -3 7 1 15 9 18 8 3 21 19 30 35 14 29
14 31 -2 30 -10 0 -25 -3 -33 -6z"/>
<path d="M1407 1103 c4 -29 21 -73 28 -73 2 0 0 12 -6 27 -7 20 -6 28 3 35 10
6 9 8 -4 8 -9 0 -18 6 -21 13 -2 6 -2 2 0 -10z"/>
<path d="M1061 1103 c7 -10 22 -28 33 -40 14 -16 16 -23 6 -23 -8 0 -2 -12 15
-30 16 -16 36 -30 44 -30 14 0 14 -1 1 -10 -13 -8 -12 -11 5 -24 24 -18 71
-30 85 -21 15 9 12 35 -5 41 -12 5 -11 10 5 32 19 27 18 82 -1 82 -18 0 -40
-48 -33 -74 4 -16 2 -26 -5 -26 -6 0 -11 6 -11 14 0 8 -11 23 -25 34 -14 11
-25 27 -25 36 0 24 -41 56 -73 56 -26 0 -28 -2 -16 -17z"/>
<path d="M2463 1105 c-6 -7 -9 -15 -6 -19 3 -3 -4 -21 -16 -41 -11 -20 -16
-33 -10 -29 12 7 53 93 47 99 -1 2 -8 -3 -15 -10z"/>
<path d="M1450 1096 c0 -2 7 -6 15 -10 8 -3 15 -1 15 4 0 6 -7 10 -15 10 -8 0
-15 -2 -15 -4z"/>
<path d="M1498 1093 c7 -3 16 -2 19 1 4 3 -2 6 -13 5 -11 0 -14 -3 -6 -6z"/>
<path d="M1530 1096 c0 -2 7 -6 15 -10 8 -3 15 -1 15 4 0 6 -7 10 -15 10 -8 0
-15 -2 -15 -4z"/>
<path d="M1583 1093 c9 -2 25 -2 35 0 9 3 1 5 -18 5 -19 0 -27 -2 -17 -5z"/>
<path d="M1705 1090 c4 -6 11 -8 16 -5 14 9 11 15 -7 15 -8 0 -12 -5 -9 -10z"/>
<path d="M1748 1093 c7 -3 16 -2 19 1 4 3 -2 6 -13 5 -11 0 -14 -3 -6 -6z"/>
<path d="M1788 1093 c6 -2 18 -2 25 0 6 3 1 5 -13 5 -14 0 -19 -2 -12 -5z"/>
<path d="M1830 1096 c0 -2 7 -7 16 -10 8 -3 12 -2 9 4 -6 10 -25 14 -25 6z"/>
<path d="M2058 1093 c6 -2 18 -2 25 0 6 3 1 5 -13 5 -14 0 -19 -2 -12 -5z"/>
<path d="M2138 1093 c6 -2 18 -2 25 0 6 3 1 5 -13 5 -14 0 -19 -2 -12 -5z"/>
<path d="M2188 1093 c6 -2 18 -2 25 0 6 3 1 5 -13 5 -14 0 -19 -2 -12 -5z"/>
<path d="M2265 1090 c4 -6 11 -8 16 -5 14 9 11 15 -7 15 -8 0 -12 -5 -9 -10z"/>
<path d="M2308 1093 c6 -2 18 -2 25 0 6 3 1 5 -13 5 -14 0 -19 -2 -12 -5z"/>
<path d="M2378 1093 c7 -3 16 -2 19 1 4 3 -2 6 -13 5 -11 0 -14 -3 -6 -6z"/>
<path d="M2418 1093 c7 -3 16 -2 19 1 4 3 -2 6 -13 5 -11 0 -14 -3 -6 -6z"/>
<path d="M2659 1083 c-5 -55 6 -82 33 -83 17 0 19 49 3 74 -20 30 -34 33 -36
9z"/>
<path d="M2010 1060 c0 -11 2 -20 4 -20 2 0 6 9 9 20 3 11 1 20 -4 20 -5 0 -9
-9 -9 -20z"/>
<path d="M2605 1020 c-13 -25 -15 -38 -7 -56 8 -17 8 -24 -4 -28 -19 -7 -18
-32 2 -40 30 -11 61 -6 79 14 18 19 17 20 -14 26 -29 6 -54 24 -33 24 16 0 20
46 7 71 l-13 23 -17 -34z"/>
<path d="M1850 1017 c0 -14 5 -29 10 -32 7 -4 8 3 4 22 -9 38 -14 42 -14 10z"/>
<path d="M1282 1002 c-9 -26 -8 -35 8 -54 17 -20 21 -21 30 -8 15 22 12 45 -8
71 l-19 22 -11 -31z"/>
<path d="M2010 1009 c0 -11 -4 -18 -8 -15 -4 2 -14 0 -22 -5 -11 -7 -8 -8 10
-6 17 3 26 11 28 25 2 12 1 22 -2 22 -3 0 -6 -9 -6 -21z"/>
<path d="M1451 1003 c7 -12 15 -20 18 -17 3 2 -3 12 -13 22 -17 16 -18 16 -5
-5z"/>
<path d="M1905 989 c-3 -4 2 -6 10 -5 21 3 28 13 10 13 -9 0 -18 -4 -20 -8z"/>
<path d="M2394 978 l-19 -23 23 19 c21 18 27 26 19 26 -2 0 -12 -10 -23 -22z"/>
<path d="M1480 972 c0 -8 70 -55 75 -50 1 2 -15 15 -36 30 -21 15 -39 24 -39
20z"/>
<path d="M2499 951 c-19 -26 -69 -47 -134 -57 -28 -4 -27 -7 4 -13 19 -3 39
-15 45 -26 37 -69 30 -65 86 -47 27 9 50 19 50 23 0 3 -13 12 -30 19 -31 13
-34 25 -20 70 5 17 8 19 9 8 1 -10 5 -18 9 -18 11 0 37 30 45 53 11 31 -39 21
-64 -12z"/>
<path d="M1360 952 c1 -21 19 -45 45 -60 18 -10 18 -11 -10 -12 -16 -1 -43 -7
-60 -14 l-30 -13 28 -13 c15 -7 27 -19 27 -25 0 -7 17 -16 38 -19 20 -4 45 -9
54 -12 13 -4 22 5 34 35 20 52 38 57 64 21 23 -32 17 -36 -24 -20 -26 9 -38
-3 -13 -13 7 -3 5 -6 -5 -6 -26 -1 -22 -24 7 -49 26 -23 40 -29 30 -12 -3 5 1
22 10 37 l16 28 -6 -37 c-3 -20 -2 -39 3 -42 5 -3 9 8 10 25 1 37 6 43 27 36
8 -4 14 -17 14 -29 -1 -17 -2 -18 -6 -5 -6 21 -23 23 -23 2 0 -16 26 -32 36
-22 3 2 6 14 7 26 1 11 5 21 10 21 4 0 5 -16 1 -35 -4 -23 -2 -35 5 -35 6 0
11 11 11 24 0 13 3 31 6 39 4 11 -5 17 -35 22 -35 6 -61 26 -61 48 0 5 96 1
107 -5 4 -3 19 -2 33 2 l25 8 -32 13 c-18 7 -34 20 -37 29 -3 12 -4 11 -5 -2
-1 -12 -10 -18 -28 -19 -16 0 -36 -2 -45 -4 -10 -2 -18 1 -18 6 0 5 -9 9 -20
9 -10 0 -45 7 -76 15 -31 8 -61 12 -65 9 -5 -3 -9 0 -9 5 0 6 7 11 17 11 15 0
15 2 -1 19 -24 27 -56 34 -56 13z m177 -169 c-14 -14 -19 -15 -29 -4 -9 9 -9
12 -1 7 6 -3 14 -2 18 4 3 5 11 10 18 10 6 0 4 -7 -6 -17z"/>
<path d="M2340 939 c-22 -18 -22 -19 -3 -10 12 6 25 16 28 21 9 15 3 12 -25
-11z"/>
<path d="M1246 914 l-30 -17 38 -15 c29 -11 43 -12 62 -4 25 12 33 42 12 42
-7 0 -22 2 -33 5 -11 3 -33 -3 -49 -11z"/>
<path d="M1580 910 c8 -5 22 -9 30 -9 10 0 8 3 -5 9 -27 12 -43 12 -25 0z"/>
<path d="M2280 910 c-23 -7 -23 -8 -3 -9 12 -1 25 4 28 9 3 6 5 10 3 9 -2 -1
-14 -5 -28 -9z"/>
<path d="M2228 893 c7 -3 16 -2 19 1 4 3 -2 6 -13 5 -11 0 -14 -3 -6 -6z"/>
<path d="M2513 893 c-21 -7 -15 -22 15 -36 31 -15 40 -15 66 0 19 10 19 11 -1
21 -25 14 -64 21 -80 15z"/>
<path d="M1710 880 c8 -5 26 -10 39 -10 32 0 24 6 -19 14 -25 4 -31 3 -20 -4z"/>
<path d="M2135 880 c-42 -7 -39 -14 5 -10 14 1 29 6 35 11 5 5 7 8 5 8 -3 -1
-23 -5 -45 -9z"/>
<path d="M2200 880 c8 -5 10 -10 4 -10 -6 0 -11 -6 -11 -14 0 -15 26 -14 71 4
15 5 26 5 28 0 2 -6 15 -6 33 0 l30 10 -30 -4 c-27 -4 -28 -3 -11 10 17 12 15
13 -20 8 -22 -3 -47 -7 -56 -9 -10 -2 -21 1 -24 6 -3 5 -11 9 -17 9 -7 0 -6
-4 3 -10z"/>
<path d="M1793 863 c9 -2 23 -2 30 0 6 3 -1 5 -18 5 -16 0 -22 -2 -12 -5z"/>
<path d="M1895 860 c-3 -6 1 -7 9 -4 18 7 21 14 7 14 -6 0 -13 -4 -16 -10z"/>
<path d="M1930 866 c0 -2 7 -7 16 -10 8 -3 12 -2 9 4 -6 10 -25 14 -25 6z"/>
<path d="M1976 858 c3 -5 10 -6 15 -3 13 9 11 12 -6 12 -8 0 -12 -4 -9 -9z"/>
<path d="M2023 863 c9 -2 25 -2 35 0 9 3 1 5 -18 5 -19 0 -27 -2 -17 -5z"/>
<path d="M2315 814 c-27 -8 -69 -15 -93 -16 -30 -2 -41 -7 -37 -16 3 -8 5 -24
5 -37 0 -12 7 -26 16 -29 8 -3 12 -2 9 4 -13 21 -14 54 -2 62 6 4 23 7 37 7
l25 -1 -25 -7 c-30 -8 -36 -54 -7 -59 9 -2 17 2 17 8 0 6 -4 9 -9 5 -13 -7
-24 12 -15 26 4 8 9 7 15 -2 8 -12 11 -11 19 1 8 12 10 11 10 -7 0 -16 6 -23
18 -22 10 0 12 3 5 6 -19 7 -17 63 2 63 12 0 13 -4 6 -19 -11 -20 -5 -31 16
-31 7 0 13 7 13 15 0 8 5 15 10 15 6 0 10 -4 10 -10 0 -14 39 -32 53 -23 8 5
3 9 -13 13 -18 4 -26 14 -30 36 l-5 31 -50 -13z m35 -14 c0 -5 -2 -10 -4 -10
-3 0 -8 5 -11 10 -3 6 -1 10 4 10 6 0 11 -4 11 -10z"/>
<path d="M2075 810 c6 -9 1 -10 -16 -5 -13 4 -21 4 -17 0 12 -13 60 -15 55 -2
-2 6 -9 13 -17 15 -8 3 -10 0 -5 -8z"/>
<path d="M1857 804 c-3 -3 -3 -13 0 -21 5 -12 -5 -14 -53 -13 -86 3 -102 1
-85 -9 9 -6 10 -11 2 -15 -6 -4 -11 -11 -11 -15 0 -12 45 -30 66 -27 25 4 31
43 7 49 -10 3 -3 5 15 6 17 0 32 -3 32 -9 0 -5 -4 -10 -10 -10 -5 0 -10 -7
-10 -15 0 -17 25 -21 35 -5 3 5 12 7 20 3 10 -3 15 2 15 16 0 14 6 21 20 21
11 0 20 -7 20 -16 0 -8 -4 -12 -10 -9 -5 3 -10 -1 -10 -9 0 -8 9 -20 20 -26
14 -7 20 -7 20 0 0 5 -5 10 -10 10 -7 0 -7 6 -1 19 6 10 7 21 4 25 -3 3 -2 6
4 6 5 0 10 -17 11 -37 1 -20 7 -41 14 -46 9 -6 4 -7 -14 -4 -31 5 -39 -8 -9
-16 30 -7 53 11 41 33 -5 10 -10 34 -10 52 l0 34 -47 -3 c-47 -4 -75 13 -50
29 8 5 8 8 1 8 -6 0 -13 -3 -17 -6z m13 -48 c0 -3 -4 -8 -10 -11 -5 -3 -10 -1
-10 4 0 6 5 11 10 11 6 0 10 -2 10 -4z m-120 -20 c0 -3 -4 -8 -10 -11 -5 -3
-10 -1 -10 4 0 6 5 11 10 11 6 0 10 -2 10 -4z m40 -5 c0 -5 -7 -11 -14 -14
-10 -4 -13 -1 -9 9 6 15 23 19 23 5z"/>
<path d="M2065 782 c-11 -2 -26 -9 -34 -16 -12 -8 -13 -8 -7 2 9 14 -3 16 -24
2 -8 -5 -10 -10 -4 -10 6 0 10 -10 10 -22 -1 -16 4 -23 17 -22 9 1 17 -2 17
-7 0 -14 17 -11 34 7 21 21 20 29 -6 42 -23 10 -23 11 5 11 24 1 27 -3 27 -29
0 -16 4 -30 8 -30 5 0 8 17 7 37 -3 37 -11 43 -50 35z m-30 -42 c-3 -5 -12
-10 -18 -10 -7 0 -6 4 3 10 19 12 23 12 15 0z m35 -9 c0 -6 -4 -13 -10 -16 -5
-3 -10 1 -10 9 0 9 5 16 10 16 6 0 10 -4 10 -9z"/>
<path d="M2134 775 c-4 -10 -1 -21 7 -26 12 -7 12 -9 0 -9 -11 0 -11 -3 -1
-15 7 -8 20 -15 29 -15 10 0 12 3 5 8 -6 4 -10 20 -10 36 1 32 -20 47 -30 21z"/>
<path d="M1860 706 c0 -2 7 -7 16 -10 8 -3 12 -2 9 4 -6 10 -25 14 -25 6z"/>
<path d="M3046 3189 c-32 -25 -34 -64 -5 -80 46 -24 104 58 63 88 -23 17 -27
17 -58 -8z"/>
<path d="M3595 1975 c-5 -2 -22 -6 -37 -9 -32 -7 -42 -49 -10 -43 84 17 92 20
92 38 0 18 -18 23 -45 14z"/>
<path d="M3574 1913 c-15 -3 -23 -14 -27 -36 -3 -18 -8 -39 -11 -47 -4 -9 6
-29 25 -50 20 -23 28 -28 24 -15 -4 11 -9 27 -12 35 -2 9 12 37 31 62 20 26
36 49 36 52 0 6 -32 6 -66 -1z"/>
<path d="M3613 1847 c-28 -40 -29 -45 -15 -66 14 -20 13 -24 0 -37 -13 -14
-18 -12 -43 18 l-28 33 6 -40 c4 -22 7 -49 7 -60 0 -18 47 -55 71 -55 5 0 8
16 6 35 -4 35 10 65 46 98 11 9 17 17 13 17 -3 0 1 12 10 28 13 22 11 21 -15
-8 -35 -39 -41 -31 -11 18 11 17 16 32 12 32 -4 0 -16 -14 -26 -31 -10 -17
-20 -28 -23 -25 -3 3 4 21 15 40 30 51 11 53 -25 3z"/>
<path d="M3675 1750 c3 -5 13 -10 21 -10 8 0 12 5 9 10 -3 6 -13 10 -21 10 -8
0 -12 -4 -9 -10z"/>
<path d="M3660 1725 c7 -8 17 -15 22 -15 6 0 5 7 -2 15 -7 8 -17 15 -22 15 -6
0 -5 -7 2 -15z"/>
<path d="M3645 1700 c10 -11 23 -20 28 -20 6 0 2 9 -8 20 -10 11 -23 20 -28
20 -6 0 -2 -9 8 -20z"/>
<path d="M3635 1670 c3 -5 11 -10 16 -10 6 0 7 5 4 10 -3 6 -11 10 -16 10 -6
0 -7 -4 -4 -10z"/>
<path d="M3509 1648 c-6 -11 -9 -21 -7 -22 30 -17 92 -46 98 -46 4 0 10 8 12
18 4 13 -7 25 -44 44 -48 26 -49 26 -59 6z"/>
<path d="M253 1808 c-32 -7 -41 -13 -36 -24 4 -12 14 -14 42 -9 44 8 51 12 51
31 0 16 1 16 -57 2z"/>
<path d="M259 1762 c-9 -1 -21 -21 -28 -42 -10 -34 -9 -44 5 -65 20 -30 39
-34 23 -4 -9 18 -6 28 20 66 17 24 31 45 31 48 0 4 -24 3 -51 -3z"/>
<path d="M290 1713 c-16 -21 -20 -35 -15 -59 8 -44 -8 -50 -40 -17 l-26 28 8
-30 c4 -16 7 -40 6 -51 -1 -21 23 -40 57 -46 10 -2 13 6 11 32 -1 26 4 41 19
55 12 11 29 33 36 50 l15 30 -25 -30 c-27 -32 -36 -23 -11 11 25 33 16 41 -10
9 -28 -34 -33 -27 -9 11 23 35 11 41 -16 7z"/>
<path d="M343 1626 c5 -12 3 -17 -5 -13 -7 2 -18 -1 -25 -8 -9 -10 -8 -17 8
-31 21 -19 27 -6 7 15 -11 11 -10 13 2 9 8 -3 21 0 27 7 10 10 9 16 -4 27 -15
11 -16 11 -10 -6z"/>
<path d="M196 1535 c-7 -19 75 -58 86 -41 13 19 9 23 -32 40 -49 19 -47 19
-54 1z"/>
<path d="M861 626 c-17 -20 13 -43 34 -26 12 10 13 16 4 26 -6 8 -15 14 -19
14 -4 0 -13 -6 -19 -14z"/>
<path d="M2475 330 c-8 -14 13 -50 30 -50 21 0 27 17 15 40 -11 21 -35 27 -45
10z"/>
<path d="M1216 394 c-6 -16 9 -44 24 -44 4 0 10 9 13 20 7 26 -28 48 -37 24z"/>
<path d="M2193 315 c-8 -22 0 -27 33 -23 27 3 27 4 10 21 -22 21 -35 22 -43 2z"/>
<path d="M1616 254 c-8 -20 -7 -21 19 -26 14 -2 20 3 20 17 0 25 -30 32 -39 9z"/>
<path d="M1900 222 c0 -10 -5 -23 -12 -30 -9 -9 -7 -13 6 -18 22 -8 38 7 41
40 3 20 -1 26 -16 26 -12 0 -19 -7 -19 -18z"/>
</g>
</svg>
